<svg width="72" height="72" viewBox="0 0 72 72" fill="none" xmlns="http://www.w3.org/2000/svg">
<path d="M33.087 7.62006C33.9781 7.12517 34.9807 6.86548 36 6.86548C37.0193 6.86548 38.0219 7.12517 38.913 7.62006L61.458 20.1421C61.9254 20.402 62.3148 20.7821 62.586 21.2431C62.8571 21.7041 63 22.2292 63 22.7641V47.4691C63.0003 48.5395 62.7142 49.5905 62.1714 50.5131C61.6286 51.4358 60.8488 52.1964 59.913 52.7161L38.913 64.3801C38.0219 64.8749 37.0193 65.1346 36 65.1346C34.9807 65.1346 33.9781 64.8749 33.087 64.3801L12.087 52.7131C11.1521 52.1938 10.3729 51.4342 9.83014 50.5127C9.28739 49.5913 9.00079 48.5415 9 47.4721V22.7641C8.99998 22.2292 9.14293 21.7041 9.41405 21.2431C9.68516 20.7821 10.0746 20.402 10.542 20.1421L33.087 7.62006Z" stroke="#198B44" stroke-width="3" stroke-linecap="round" stroke-linejoin="round"/>
<path d="M22.5 13.5L49.5 28.5V39M18 36.984L27 42" stroke="#198B44" stroke-width="3" stroke-linecap="round" stroke-linejoin="round"/>
<path d="M9 21L36 36M36 36L63 21M36 36V66" stroke="#198B44" stroke-width="3" stroke-linejoin="round"/>
</svg>
