<svg width="72" height="72" viewBox="0 0 72 72" fill="none" xmlns="http://www.w3.org/2000/svg">
<path d="M51 32.4151C51 31.3771 51 30.8581 51.156 30.3961C51.609 29.0521 52.806 28.5331 54.006 27.9871C55.35 27.3721 56.022 27.0661 56.691 27.0121C57.447 26.9521 58.206 27.1141 58.854 27.4771C59.712 27.9571 60.312 28.8751 60.924 29.6191C63.753 33.0571 65.169 34.7761 65.685 36.6691C66.105 38.1991 66.105 39.8011 65.685 41.3281C64.932 44.0941 62.547 46.4101 60.78 48.5581C59.877 49.6531 59.424 50.2021 58.854 50.5231C58.1948 50.8887 57.4421 51.0505 56.691 50.9881C56.022 50.9341 55.35 50.6281 54.003 50.0131C52.803 49.4671 51.609 48.9481 51.156 47.6041C51 47.1421 51 46.6231 51 45.5851V32.4151ZM21 32.4151C21 31.1071 20.964 29.9341 19.908 29.0161C19.524 28.6831 19.014 28.4521 17.997 27.9871C16.65 27.3751 15.978 27.0661 15.309 27.0121C13.308 26.8501 12.231 28.2181 11.079 29.6221C8.24697 33.0571 6.83097 34.7761 6.31197 36.6721C5.89438 38.197 5.89438 39.8062 6.31197 41.3311C7.06797 44.0941 9.45597 46.4131 11.22 48.5581C12.333 49.9081 13.398 51.1411 15.309 50.9881C15.978 50.9341 16.65 50.6281 17.997 50.0131C19.017 49.5511 19.524 49.3171 19.908 48.9841C20.964 48.0661 21 46.8931 21 45.5881V32.4151Z" stroke="#198B44" stroke-width="2.5" stroke-linecap="round" stroke-linejoin="round"/>
<path d="M15 27C15 17.058 24.402 9 36 9C47.598 9 57 17.058 57 27M57 51V53.4C57 58.701 51.63 63 45 63H39" stroke="#198B44" stroke-width="2.5" stroke-linecap="round" stroke-linejoin="round"/>
</svg>
