<svg width="72" height="72" viewBox="0 0 72 72" fill="none" xmlns="http://www.w3.org/2000/svg">
<path d="M18 24H30" stroke="#198B44" stroke-width="2.5" stroke-linecap="round" stroke-linejoin="round"/>
<path d="M62.499 27H54.693C49.338 27 45 31.029 45 36C45 40.971 49.341 45 54.69 45H62.499C62.751 45 62.874 45 62.979 44.994C64.599 44.895 65.889 43.698 65.994 42.195C66 42.099 66 41.982 66 41.751V30.249C66 30.018 66 29.901 65.994 29.805C65.886 28.302 64.599 27.105 62.979 27.006C62.877 27 62.751 27 62.499 27Z" stroke="#198B44" stroke-width="2.5"/>
<path d="M62.895 27C62.661 21.384 61.911 17.94 59.484 15.516C55.971 12 50.313 12 39 12H30C18.687 12 13.029 12 9.516 15.516C6.003 19.032 6 24.687 6 36C6 47.313 6 52.971 9.516 56.484C13.032 59.997 18.687 60 30 60H39C50.313 60 55.971 60 59.484 56.484C61.911 54.06 62.664 50.616 62.895 45" stroke="#198B44" stroke-width="2.5"/>
<path d="M53.9729 36H54.0029" stroke="#198B44" stroke-width="2" stroke-linecap="round" stroke-linejoin="round"/>
</svg>
